<svg viewBox="0 0 13.3333 11.3333" fill="none" xmlns="http://www.w3.org/2000/svg" x="0" y="0"><g id="elements_32">
<path id="Rectangle 2044_3" d="M-0.0003,5.33c0,0.74 0.597,1.34 1.334,1.34c1.104,0 2,-0.9 2,-2v-2.67c0,-1.1 -0.896,-2 -2,-2c-0.737,0 -1.334,0.6 -1.334,1.33z" stroke="#FF8C42" stroke-linecap="round" stroke-linejoin="round"/>
<path id="Vector_34" d="M8.9857,8.46l-0.178,-0.57c-0.145,-0.47 -0.218,-0.71 -0.162,-0.89c0.045,-0.15 0.145,-0.28 0.28,-0.37c0.168,-0.1 0.421,-0.1 0.927,-0.1h0.269c1.714,0 2.57,0 2.975,-0.51c0.046,-0.06 0.087,-0.12 0.123,-0.18c0.311,-0.57 -0.043,-1.33 -0.751,-2.85c-0.649,-1.4 -0.974,-2.1 -1.577,-2.51c-0.058,-0.04 -0.118,-0.08 -0.18,-0.12c-0.634,-0.36 -1.421,-0.36 -2.994,-0.36h-0.341c-1.906,0 -2.859,0 -3.451,0.57c-0.592,0.58 -0.592,1.5 -0.592,3.35v0.65c0,0.97 0,1.45 0.172,1.9c0.172,0.44 0.502,0.81 1.161,1.54l2.728,3.02c0.068,0.07 0.103,0.11 0.133,0.14c0.281,0.24 0.716,0.21 0.962,-0.06c0.026,-0.03 0.055,-0.08 0.113,-0.16c0.09,-0.13 0.135,-0.2 0.174,-0.26c0.352,-0.58 0.458,-1.27 0.297,-1.93c-0.018,-0.07 -0.041,-0.15 -0.088,-0.3z" stroke="#FF8C42" stroke-linecap="round" stroke-linejoin="round"/>
</g></svg>