<svg viewBox="0 0 13.3335 11.3334" fill="none" xmlns="http://www.w3.org/2000/svg" x="0" y="0"><g id="elements_17">
<path id="Rectangle 2044" d="M-0.0005,6c0,-0.74 0.597,-1.33 1.334,-1.33c1.104,0 2,0.89 2,2v2.66c0,1.11 -0.896,2 -2,2c-0.737,0 -1.334,-0.59 -1.334,-1.33z" stroke="#717182" stroke-width="1.2" stroke-linecap="round" stroke-linejoin="round"/>
<path id="Vector_19" d="M8.9855,2.87l-0.177,0.57c-0.146,0.47 -0.219,0.71 -0.163,0.89c0.046,0.15 0.145,0.28 0.28,0.37c0.168,0.1 0.421,0.1 0.927,0.1h0.269c1.714,0 2.571,0 2.975,0.51c0.046,0.06 0.088,0.12 0.123,0.19c0.311,0.56 -0.042,1.32 -0.75,2.85c-0.65,1.4 -0.975,2.1 -1.578,2.51c-0.058,0.04 -0.118,0.07 -0.179,0.11c-0.635,0.36 -1.422,0.36 -2.995,0.36h-0.341c-1.906,0 -2.859,0 -3.451,-0.57c-0.592,-0.57 -0.592,-1.5 -0.592,-3.34v-0.65c0,-0.97 0,-1.46 0.172,-1.9c0.172,-0.45 0.502,-0.81 1.162,-1.54l2.727,-3.02c0.069,-0.08 0.103,-0.12 0.133,-0.14c0.281,-0.25 0.716,-0.22 0.962,0.06c0.026,0.03 0.055,0.07 0.113,0.15c0.09,0.13 0.135,0.2 0.174,0.27c0.352,0.58 0.458,1.27 0.297,1.92c-0.018,0.07 -0.041,0.15 -0.088,0.3z" stroke="#717182" stroke-width="1.2" stroke-linecap="round" stroke-linejoin="round"/>
</g></svg>